<svg width="19" height="20" viewBox="0 0 19 20" fill="none" xmlns="http://www.w3.org/2000/svg">
<path d="M4.41158 19.0918C1.97545 19.0918 0 17.1154 0 14.6956V4.81409C0 2.39427 1.98326 0.417969 4.41158 0.417969H14.3201C16.7562 0.417969 18.7316 2.39427 18.7316 4.81409V18.1035C18.7316 18.6482 18.2866 19.0918 17.74 19.0918H4.41158ZM4.41158 2.3865C3.06859 2.3865 1.97545 3.4758 1.97545 4.81409V14.6878C1.97545 16.0262 3.06859 17.1154 4.41158 17.1154H16.7562V4.81409C16.7562 3.4758 15.6631 2.3865 14.3201 2.3865H4.41158Z" fill="#4F4F4F"/>
</svg>
<svg width="20" height="20" viewBox="0 0 20 20" fill="none" xmlns="http://www.w3.org/2000/svg">
<path d="M1.39502 19.0918C0.84842 19.0918 0.40332 18.6482 0.40332 18.1035V4.81409C0.40332 2.3865 2.38662 0.417969 4.81492 0.417969H14.7234C17.1596 0.417969 19.135 2.39427 19.135 4.81409V14.6878C19.135 17.1154 17.1517 19.084 14.7234 19.084H1.38722L1.39502 19.0918ZM4.81492 2.3865C3.47192 2.3865 2.37882 3.4758 2.37882 4.81409V17.1154H14.7234C16.0664 17.1154 17.1596 16.0262 17.1596 14.6878V4.81409C17.1596 3.4758 16.0664 2.3865 14.7234 2.3865H4.81492Z" fill="#4F4F4F"/>
</svg>
<br/>
<svg width="19" height="20" viewBox="0 0 19 20" fill="none" xmlns="http://www.w3.org/2000/svg">
<path d="M4.41158 19.416C1.97545 19.416 0 17.4397 0 15.0199V5.14615C0 2.71854 1.98326 0.75 4.41158 0.75H17.7478C18.2944 0.75 18.7395 1.19352 18.7395 1.73821V15.0277C18.7395 17.4552 16.7562 19.4238 14.3279 19.4238H4.41158V19.416ZM4.41158 2.71076C3.06859 2.71076 1.97545 3.80003 1.97545 5.13837V15.0121C1.97545 16.3504 3.06859 17.4397 4.41158 17.4397H14.3201C15.6631 17.4397 16.7562 16.3504 16.7562 15.0121V2.71076H4.41158Z" fill="#4F4F4F"/>
</svg>

<svg width="20" height="20" viewBox="0 0 20 20" fill="none" xmlns="http://www.w3.org/2000/svg">
<path d="M4.81492 19.4163C2.37882 19.4163 0.40332 17.44 0.40332 15.0201V1.73064C0.40332 1.18595 0.84842 0.742432 1.39502 0.742432H14.7312C17.1674 0.742432 19.1428 2.71874 19.1428 5.13858V15.0124C19.1428 17.44 17.1596 19.4085 14.7312 19.4085H4.82272L4.81492 19.4163ZM2.37882 15.0201C2.37882 16.3585 3.47192 17.4477 4.81492 17.4477H14.7234C16.0664 17.4477 17.1596 16.3585 17.1596 15.0201V5.14635C17.1596 3.80811 16.0664 2.71874 14.7234 2.71874H2.37882V15.0201Z" fill="#4F4F4F"/>
</svg>
